name processed_emg_signals
nRows=49
nColumns=7
 
endheader
time	LGLTMED	LRF	LADDLONG	LST	LTA	LGM
0.0	0.0043153734636986	0.003492050495216	0.0449420943525957	0.0158345976057136	0.0688768160240124	0.0128347841279343
0.001	0.0027620151338961	0.0070380412365361	0.054047267521616	0.0165118245800653	0.0728315886333098	0.0102068311160939
0.002	0.0012151017695931	0.0105879110478958	0.0631479361557351	0.0171813702409607	0.0768068431126836	0.0075889532304356
0.003	0.0003244226152827	0.0141395808258971	0.0722384028725151	0.0178423364173289	0.0807997899205653	0.0049826872040258
0.004	0.0018556246911338	0.0176909706220915	0.0813129724879324	0.0184938184325486	0.0848076015609597	0.0023895572665174
0.005	0.0033775832681065	0.0212400026114534	0.0903659599915923	0.0191349062815786	0.0888274164527985	0.0001889268016612
0.006	0.0048893907244881	0.0247846040408754	0.0993916984933182	0.0197646858392752	0.0928563428669501	0.0027512715845656
0.007	0.0063901544038931	0.0283227101488381	0.1083845471199075	0.0203822400982881	0.0968914629200911	0.0052960019115891
0.008	0.0078789979773716	0.0318522670479746	0.1173388988400369	0.020986650435058	0.1009298366146313	0.0078216627002627
0.009000000000000001	0.0093550627669454	0.0353712345632646	0.1262491881973375	0.0215769979024391	0.1049685059138487	0.0103268207574965
0.01	0.0108175090274103	0.038877589018849	0.1351098989317531	0.0221523645476189	0.1090044988415173	0.0128100665359695
0.011	0.0122655171835419	0.0423693259671239	0.1439155714708352	0.0227118347540762	0.1130348335954132	0.0152700158424151
0.012	0.0136982890201267	0.0458444628542105	0.1526608102737326	0.0232544966063345	0.117056522664504	0.0177053114946488
0.013000000000000001	0.0151150488224826	0.0493010416163063	0.1613402910129322	0.0237794432763009	0.1210665769401829	0.0201146249241769
0.014	0.0165150444652937	0.052737131202015	0.169948767579891	0.0242857744299424	0.125062009812563	0.022496657721349
0.015	0.0178975484476677	0.0561508300161333	0.1784810789026184	0.0247725976530126	0.1290398412437598	0.0248501431200251
0.016	0.0192618588725459	0.0595402682813354	0.1869321555635867	0.0252390298946166	0.1329971018108305	0.0271738474189248
0.017	0.020607300368736	0.0629036103143736	0.1952970262073523	0.0256841989272991	0.1369308367119389	0.0294665713369328
0.018000000000000002	0.0219332249541358	0.0662390567145994	0.2035708237277867	0.0261072448223794	0.1408381097300274	0.0317271512999743
0.019	0.0232390128389794	0.069544846462611	0.2117487912255103	0.0265073214392159	0.1447160071488106	0.0339544606573521
0.02	0.0245240731683186	0.0728192589278303	0.2198262877276903	0.0268835979270217	0.148561641616017	0.0361474108260196
0.021	0.025787844703165	0.0760606157834216	0.2277987936630351	0.0272352602378441	0.1523721559488328	0.0383049523616093
0.022	0.027029796440047	0.0792672828277771	0.2356619160877073	0.0275615126492918	0.1561447268761663	0.0404260759555437
0.023	0.0282494281690083	0.0824376717116632	0.2434113936576538	0.027861579295527	0.1598765687120852	0.0425098133577114
0.024	0.029446270970519	0.0855702415702413	0.2510431013454265	0.028134705705026	0.163564936954473	0.0445552382244626
0.025	0.0306198876518167	0.088663500559835	0.2585530549001276	0.0283801603435644	0.1672071318027018	0.0465614668918028
0.026000000000000002	0.0317698731236957	0.091716007298993	0.2659374150502773	0.0285972361609154	0.1708005015882436	0.0485276590736926
0.027	0.0328958547187666	0.0947263722138394	0.273192491449964	0.0287852521397177	0.1743424461122686	0.0504530184855242
0.028	0.0339974924525335	0.0976932587877018	0.2803147463692592	0.0289435548449914	0.1778304198846825	0.0523367933929215
0.029	0.0350744792286362	0.100615384715195	0.2873007981290131	0.0290715199727102	0.1812619352592889	0.0541782770860389
0.03	0.036126540989835	0.1034915229612832	0.294147424280543	0.0291685538957974	0.18463456546012	0.0559768082797091
0.031	0.0371534368162007	0.1063205027258431	0.3008515645294992	0.029234095205863	0.1879459474943291	0.0577317714399463
0.032	0.0381549589721452	0.1091012103142529	0.3074103234037507	0.0292676162488997	0.1911937849475652	0.0594425970374834
0.033	0.0391309329038544	0.1118325899147244	0.3138209726635453	0.0292686246531259	0.1943758506585098	0.0611087617294291
0.034	0.0400812171886623	0.1145136442827998	0.3200809534532253	0.0292366648471006	0.1974899892701928	0.0627297884704132
0.035	0.0410057034379157	0.1171434353340498	0.3261878781927537	0.0291713195661929	0.200534119656564	0.0643052465550144
0.036000000000000004	0.0419043161546845	0.1197210846458325	0.3321395322073919	0.0290722113454714	0.2035062372236203	0.0658347515936043
0.037	0.042777012547728	0.1222457738692527	0.3379338750942088	0.028939003997077	0.20640441608468	0.0673179654238461
0.038	0.0436237823028502	0.1247167450527221	0.3435690418230908	0.0287714040701025	0.2092268111094653	0.0687545959602991
0.039	0.0444446473128807	0.1271333008786545	0.349043343570104	0.0285691622910216	0.2119716598464306	0.0701443969845953
0.04	0.0452396613673454	0.1294948048147876	0.3543552682815493	0.0283320749826368	0.2146372843177013	0.0714871678785863
0.041	0.0460089098029762	0.1318006811817787	0.3595034809664501	0.0280599854596118	0.2172220926860332	0.0727827533029123
0.042	0.0467525091162684	0.1340504151384257	0.3644868237167768	0.0277527853985157	0.2197245807934152	0.0740310428233933
0.043000000000000003	0.0474706065391927	0.1362435525854972	0.3693043154542447	0.027410416180413	0.2221433335710566	0.0752319704875886
0.044	0.048163379579255	0.1383796999892065	0.3739551514037068	0.0270328702038868	0.224477026320617	0.0763855143539034
0.045	0.0488310355250832	0.1404585241248062	0.3784387022932537	0.0266201921664614	0.2267244258667949	0.0774916959755945
0.046	0.0494738109185967	0.1424797517408467	0.3827545132822976	0.0261724803123065	0.2288843915818527	0.0785505798419717
0.047	0.0500919709949051	0.1444431691446574	0.3869023026201707	0.0256898876441819	0.2309558762831522	0.0795622727790002
0.048	0.0506858090909998	0.1463486217096208	0.3908819600388449	0.0251726230974708	0.2329379270051511	0.0805269233113977
